HIERARCHY
ROOT Hips
{
	OFFSET -0.001795 -0.223333 0.028219
	CHANNELS 6 Xposition Yposition Zposition Zrotation Yrotation Xrotation 
	JOINT LeftUpLeg
	{
		OFFSET 0.069520 -0.091406 -0.006815
		CHANNELS 3 Zrotation Yrotation Xrotation
		JOINT LeftLeg
		{
			OFFSET 0.034277 -0.375199 -0.004496
			CHANNELS 3 Zrotation Yrotation Xrotation
			JOINT LeftFoot
			{
				OFFSET -0.013596 -0.397961 -0.043693
				CHANNELS 3 Zrotation Yrotation Xrotation
				JOINT LeftToe
				{
					OFFSET 0.026358 -0.055791 0.119288
					CHANNELS 3 Zrotation Yrotation Xrotation
					End Site
					{
						OFFSET 0.000000 0.000000 0.000000
					}
				}
			}
		}
	}
	JOINT RightUpLeg
	{
		OFFSET -0.067670 -0.090522 -0.004320
		CHANNELS 3 Zrotation Yrotation Xrotation
		JOINT RightLeg
		{
			OFFSET -0.038290 -0.382569 -0.008850
			CHANNELS 3 Zrotation Yrotation Xrotation
			JOINT RightFoot
			{
				OFFSET 0.015774 -0.398415 -0.042312
				CHANNELS 3 Zrotation Yrotation Xrotation
				JOINT RightToe
				{
					OFFSET -0.025372 -0.048144 0.123348
					CHANNELS 3 Zrotation Yrotation Xrotation
					End Site
					{
						OFFSET 0.000000 0.000000 0.000000
					}
				}
			}
		}
	}
	JOINT Spine
	{
		OFFSET -0.002533 0.108963 -0.026696
		CHANNELS 3 Zrotation Yrotation Xrotation
		JOINT Spine1
		{
			OFFSET 0.005487 0.135180 0.001092
			CHANNELS 3 Zrotation Yrotation Xrotation
			JOINT Spine2
			{
				OFFSET 0.001457 0.052922 0.025425
				CHANNELS 3 Zrotation Yrotation Xrotation
				JOINT Neck
				{
					OFFSET -0.002778 0.213870 -0.042857
					CHANNELS 3 Zrotation Yrotation Xrotation
					JOINT Head
					{
						OFFSET 0.005152 0.064970 0.051349
						CHANNELS 3 Zrotation Yrotation Xrotation
						End Site
						{
							OFFSET 0.000000 0.000000 0.000000
						}
					}
				}
				JOINT LeftShoulder
				{
					OFFSET 0.078845 0.121749 -0.034090
					CHANNELS 3 Zrotation Yrotation Xrotation
					JOINT LeftArm
					{
						OFFSET 0.090977 0.030469 -0.008868
						CHANNELS 3 Zrotation Yrotation Xrotation
						JOINT LeftForeArm
						{
							OFFSET 0.259612 -0.012772 -0.027456
							CHANNELS 3 Zrotation Yrotation Xrotation
							JOINT LeftHand
							{
								OFFSET 0.249234 0.008986 -0.001171
								CHANNELS 3 Zrotation Yrotation Xrotation
								End Site
								{
									OFFSET 0.000000 0.000000 0.000000
								}
							}
						}
					}
				}
				JOINT RightShoulder
				{
					OFFSET -0.081759 0.118833 -0.038615
					CHANNELS 3 Zrotation Yrotation Xrotation
					JOINT RightArm
					{
						OFFSET -0.096012 0.032551 -0.009143
						CHANNELS 3 Zrotation Yrotation Xrotation
						JOINT RightForeArm
						{
							OFFSET -0.253742 -0.013329 -0.021401
							CHANNELS 3 Zrotation Yrotation Xrotation
							JOINT RightHand
							{
								OFFSET -0.255298 0.007772 -0.005559
								CHANNELS 3 Zrotation Yrotation Xrotation
								End Site
								{
									OFFSET 0.000000 0.000000 0.000000
								}
							}
						}
					}
				}
			}
		}
	}
}
MOTION
Frames: 7
Frame Time: 0.050000
0.000000 0.907090 0.000000 -0.031039 7.674774 11.763321 13.968393 -0.403777 -27.478007 -11.875709 2.137537 19.280520 8.899076 19.063296 4.214565 0.000000 0.000000 0.000000 -14.685588 -0.843417 -25.915339 12.833065 -4.922071 30.208445 -11.154827 -25.726433 6.956924 0.000000 0.000000 0.000000 -2.018126 -1.050502 25.773130 5.811664 -0.400593 -26.791207 1.493430 -1.163404 28.523693 -4.272038 4.399586 -35.706840 0.000000 0.000000 0.000000 -32.207775 -3.209056 -1.452497 -42.045910 -20.222073 -0.127825 -31.204429 -62.169051 22.723184 0.000000 0.000000 0.000000 15.249854 7.577567 3.911533 45.489697 7.386489 -4.119282 16.884906 62.228129 14.493657 0.000000 0.000000 0.000000 
-0.010128 0.900053 -0.002064 0.161239 7.221068 13.765526 14.605826 -0.285267 -30.431411 -12.144869 2.314279 20.292501 10.161369 21.467574 3.719898 0.000000 0.000000 0.000000 -14.959741 -1.083905 -29.875194 14.388672 -5.710961 31.546121 -11.523995 -26.503670 7.029728 0.000000 0.000000 0.000000 -0.701162 -1.469381 26.874870 5.748338 -0.327559 -27.510722 1.888035 0.003389 28.275996 -6.312023 5.359396 -36.707903 0.000000 0.000000 0.000000 -33.298485 -1.743715 -3.098837 -42.715398 -20.794038 0.274527 -37.214444 -61.807385 26.369582 0.000000 0.000000 0.000000 15.077705 7.424713 4.042133 43.673216 6.253970 -4.386934 21.572109 67.392641 19.508131 0.000000 0.000000 0.000000 
-0.019462 0.892506 -0.005338 1.184064 7.691995 14.263012 14.666124 -0.352954 -32.760330 -12.903232 2.644628 22.960413 9.167041 19.734576 2.982414 0.000000 0.000000 0.000000 -16.090018 -1.589882 -31.466507 16.665764 -7.087344 33.115317 -12.773394 -29.663195 4.134185 0.000000 0.000000 0.000000 1.149463 -2.181936 28.273963 4.819368 -0.172548 -26.579830 1.094225 1.052068 27.215772 -4.981308 4.972572 -35.751807 0.000000 0.000000 0.000000 -36.635341 -4.067537 -2.469896 -38.421316 -21.285835 0.502775 -36.676514 -61.212433 25.388276 0.000000 0.000000 0.000000 16.068491 8.443513 4.911475 41.162121 7.247008 -3.894123 17.350651 68.931419 17.188774 0.000000 0.000000 0.000000 
-0.027777 0.885743 -0.009562 1.559261 6.980437 14.967957 15.896213 0.032980 -35.832590 -14.204612 3.314671 25.382176 10.200879 21.799694 4.638712 0.000000 0.000000 0.000000 -17.292512 -2.101846 -34.617112 18.549202 -8.313055 35.541388 -13.941375 -31.216717 6.865330 0.000000 0.000000 0.000000 1.465266 -2.581005 31.618200 4.666155 -0.085331 -27.511690 1.605892 1.570705 26.686953 -6.506238 5.619833 -34.878057 0.000000 0.000000 0.000000 -38.226123 -3.894746 -2.815598 -36.690558 -21.553526 0.523042 -38.981386 -62.172051 27.415617 0.000000 0.000000 0.000000 15.656191 10.321617 5.869921 38.224835 8.411946 -3.342484 13.389926 73.321334 15.514358 0.000000 0.000000 0.000000 
-0.034754 0.879367 -0.013810 2.495435 5.887534 15.766295 16.280068 0.338076 -39.255570 -15.699954 4.188057 27.964507 10.289039 21.996738 6.123511 0.000000 0.000000 0.000000 -18.224026 -2.559353 -37.887330 19.609962 -9.115636 37.896717 -15.085193 -33.308524 7.293070 0.000000 0.000000 0.000000 2.115325 -3.011815 34.419922 4.353528 -0.005464 -28.003108 1.471825 3.273681 26.469221 -6.368282 5.671682 -35.351398 0.000000 0.000000 0.000000 -37.674523 -5.909847 -1.704396 -35.909247 -20.937977 0.455550 -41.360438 -65.205020 30.505862 0.000000 0.000000 0.000000 16.285789 11.425809 6.803293 35.616174 10.474439 -2.708611 0.479800 76.397292 6.460215 0.000000 0.000000 0.000000 
-0.039427 0.874641 -0.017025 2.748080 4.685021 17.036417 17.078515 0.856926 -42.184458 -16.757375 4.881203 29.081626 10.369871 22.170184 6.101068 0.000000 0.000000 0.000000 -18.953649 -2.839139 -40.736470 20.437136 -9.620272 39.359709 -14.990939 -33.081266 8.048982 0.000000 0.000000 0.000000 2.657578 -3.299411 36.222338 3.760013 0.084431 -27.786723 1.904269 4.137849 25.289717 -7.260950 5.966023 -36.046462 0.000000 0.000000 0.000000 -37.499338 -6.848544 -1.056361 -35.154712 -20.066001 0.296088 -43.006035 -66.707116 32.501989 0.000000 0.000000 0.000000 16.324868 12.653869 7.533474 34.308150 12.489935 -2.090002 -15.029692 79.346967 -5.841811 0.000000 0.000000 0.000000 
-0.041422 0.869944 -0.017881 2.872997 2.597314 17.267199 18.018011 1.686748 -43.761343 -16.970069 5.313874 29.577202 10.496077 22.208905 6.916546 0.000000 0.000000 0.000000 -19.254826 -2.692401 -42.665943 21.203481 -9.891796 40.794697 -14.743225 -32.897141 7.865441 0.000000 0.000000 0.000000 2.766380 -3.287735 38.428741 3.409290 0.153638 -28.341757 2.084469 4.793104 25.155698 -7.229282 5.879658 -36.316847 0.000000 0.000000 0.000000 -37.279187 -7.651899 -0.145221 -34.292190 -19.433798 0.030074 -46.188751 -70.098062 37.043496 0.000000 0.000000 0.000000 16.813685 13.916628 8.208343 32.404009 14.939050 -1.495403 -31.560658 80.516825 -20.131973 0.000000 0.000000 0.000000 
